# xmcd
#
# Track frame offsets: 
#        150
#        21108
#        33268
#        44079
#        52834
#        63312
#        73319
#        88758
#        101547
#        108294
#        127203
#        136068
#        151021
#        161424
#        170260
#        180747
#        188676
#        200625
#        223546
#        246177
#        262366
#        277161
#
# Disc length: 3976 seconds
#
# Revision: 0
# Processed by: cddbd v1.5.2PL0 Copyright (c) Steve Scherf et al.
# Submitted via: ExactAudioCopy v0.99pb3
#
DISCID=440f8616
DTITLE=Various Artist - Terrace Industry (M Squared Box 1980-1983) [CD1]
DYEAR=2010
DGENRE=Ascension
TTITLE0=Systematics - Pulp Baby
TTITLE1=Systematics - Nuts To You
TTITLE2=Systematics - Product
TTITLE3=Systematics - Numbers In General
TTITLE4=Systematics - 2,4,5-T
TTITLE5=Systematics - When I'm Older
TTITLE6=Systematics - Flowers On The Wall
TTITLE7=Systematics - Vanessa Teratology
TTITLE8=Systematics - Dinner's On The Table
TTITLE9=Systematics - Stuh Echipidah
TTITLE10=Systematics - Mmmm
TTITLE11=Systematics - Midnight On Balancing Day
TTITLE12=Systematics - Die For My House
TTITLE13=Systematics - International Voltage
TTITLE14=Systematics - Bovine
TTITLE15=Systematics - Fat Cows Go Down An Eastern Beach
TTITLE16=Systematics - BBD
TTITLE17=Splendid Mess - NASA Secret ANZAC
TTITLE18=Patrick Gibson - Bland A
TTITLE19=Patrick Gibson - Church Of England TV
TTITLE20=Patrick Gibson - Yeah OK
TTITLE21=Patrick Gibson - Catatonic
EXTD=
EXTT0=
EXTT1=
EXTT2=
EXTT3=
EXTT4=
EXTT5=
EXTT6=
EXTT7=
EXTT8=
EXTT9=
EXTT10=
EXTT11=
EXTT12=
EXTT13=
EXTT14=
EXTT15=
EXTT16=
EXTT17=
EXTT18=
EXTT19=
EXTT20=
EXTT21=
PLAYORDER=
